<svg xmlns="http://www.w3.org/2000/svg" xmlns:xlink="http://www.w3.org/1999/xlink" width="375" zoomAndPan="magnify" viewBox="0 0 375 374.999991" height="374.999991" preserveAspectRatio="xMidYMid meet" version="1.0"><defs><g/></defs><path fill="rgb(86.268616%, 23.529053%, 30.198669%)" d="M 115.3125 158.613281 L 115.3125 130.082031 L 84.1875 130.082031 L 84.1875 158.613281 L 99.75 174.175781 Z M 76.40625 166.394531 L 47.875 166.394531 L 47.875 197.519531 L 76.40625 197.519531 L 91.96875 181.957031 Z M 84.1875 205.300781 L 84.1875 233.832031 L 115.3125 233.832031 L 115.3125 205.300781 L 99.75 189.738281 Z M 123.09375 166.394531 L 107.53125 181.957031 L 123.09375 197.519531 L 151.625 197.519531 L 151.625 166.394531 Z M 123.09375 166.394531 " fill-opacity="1" fill-rule="nonzero"/><g fill="rgb(100%, 100%, 100%)" fill-opacity="1"><g transform="translate(169.729988, 171.749989)"><g><path d="M 23.257812 -27.597656 C 23.179688 -27.789062 23.105469 -28.015625 23.03125 -28.164062 C 22.425781 -30.128906 20.613281 -31.527344 18.539062 -31.527344 C 17.59375 -31.527344 16.6875 -31.261719 15.933594 -30.734375 C 15.707031 -30.621094 15.515625 -30.46875 15.367188 -30.355469 C 14.800781 -29.863281 14.234375 -28.957031 13.703125 -27.597656 L 3.171875 -1.433594 C 3.058594 -1.09375 3.019531 -0.753906 3.097656 -0.527344 C 3.132812 -0.300781 3.324219 0.0390625 3.925781 0.0390625 L 8.078125 0.0390625 C 8.570312 0.0390625 8.949219 -0.265625 9.136719 -0.753906 L 11.289062 -6.152344 L 19.558594 -6.152344 C 19.972656 -6.152344 20.351562 -6.34375 20.539062 -6.683594 C 20.765625 -6.984375 20.804688 -7.398438 20.691406 -7.777344 L 19.332031 -11.136719 C 19.140625 -11.589844 18.726562 -11.894531 18.234375 -11.894531 L 13.554688 -11.894531 L 18.386719 -24.125 C 18.425781 -24.199219 18.460938 -24.238281 18.460938 -24.238281 L 18.613281 -24.238281 C 18.613281 -24.238281 18.613281 -24.238281 18.652344 -24.164062 L 28.015625 -0.792969 C 28.203125 -0.265625 28.582031 0.0390625 29.109375 0.0390625 L 33.148438 0.0390625 C 33.753906 0.0390625 33.902344 -0.339844 33.980469 -0.527344 C 34.054688 -0.753906 34.015625 -1.09375 33.867188 -1.433594 Z M 23.257812 -27.597656 "/></g></g></g><g fill="rgb(100%, 100%, 100%)" fill-opacity="1"><g transform="translate(219.030171, 171.749989)"><g><path d="M 29.75 -31.109375 L 26.390625 -31.109375 C 26.050781 -31.109375 25.332031 -30.996094 25.332031 -29.789062 L 25.332031 -7.097656 C 25.332031 -7.058594 25.332031 -7.058594 25.332031 -7.023438 L 25.144531 -7.023438 C 25.105469 -7.023438 25.070312 -7.023438 25.03125 -7.136719 L 13.101562 -28.355469 C 12.800781 -28.921875 12.535156 -29.375 12.269531 -29.714844 C 12.007812 -30.089844 11.742188 -30.394531 11.476562 -30.582031 C 11.175781 -30.808594 10.835938 -30.960938 10.421875 -31.035156 C 10.042969 -31.074219 9.589844 -31.109375 9.097656 -31.109375 L 6.265625 -31.109375 C 5.171875 -31.109375 4.34375 -30.734375 3.8125 -30.054688 C 3.285156 -29.335938 3.019531 -28.089844 3.019531 -26.238281 L 3.019531 -1.285156 C 3.019531 -0.113281 3.777344 0.0390625 4.117188 0.0390625 L 7.476562 0.0390625 C 7.816406 0.0390625 8.53125 -0.113281 8.53125 -1.285156 L 8.53125 -23.972656 C 8.53125 -24.011719 8.53125 -24.050781 8.53125 -24.050781 L 8.722656 -24.050781 C 8.722656 -24.050781 8.757812 -24.050781 8.835938 -23.9375 L 20.804688 -2.71875 C 21.105469 -2.113281 21.40625 -1.660156 21.671875 -1.320312 C 21.9375 -0.945312 22.199219 -0.679688 22.503906 -0.492188 C 22.804688 -0.265625 23.144531 -0.152344 23.519531 -0.0742188 C 23.859375 0 24.277344 0.0390625 24.804688 0.0390625 L 27.5625 0.0390625 C 28.65625 0.0390625 29.488281 -0.339844 30.015625 -1.058594 C 30.542969 -1.738281 30.808594 -2.984375 30.808594 -4.832031 L 30.808594 -29.789062 C 30.808594 -30.996094 30.054688 -31.109375 29.75 -31.109375 Z M 29.75 -31.109375 "/></g></g></g><g fill="rgb(100%, 100%, 100%)" fill-opacity="1"><g transform="translate(265.084203, 171.749989)"><g><path d="M 23.257812 -27.597656 C 23.179688 -27.789062 23.105469 -28.015625 23.03125 -28.164062 C 22.425781 -30.128906 20.613281 -31.527344 18.539062 -31.527344 C 17.59375 -31.527344 16.6875 -31.261719 15.933594 -30.734375 C 15.707031 -30.621094 15.515625 -30.46875 15.367188 -30.355469 C 14.800781 -29.863281 14.234375 -28.957031 13.703125 -27.597656 L 3.171875 -1.433594 C 3.058594 -1.09375 3.019531 -0.753906 3.097656 -0.527344 C 3.132812 -0.300781 3.324219 0.0390625 3.925781 0.0390625 L 8.078125 0.0390625 C 8.570312 0.0390625 8.949219 -0.265625 9.136719 -0.753906 L 11.289062 -6.152344 L 19.558594 -6.152344 C 19.972656 -6.152344 20.351562 -6.34375 20.539062 -6.683594 C 20.765625 -6.984375 20.804688 -7.398438 20.691406 -7.777344 L 19.332031 -11.136719 C 19.140625 -11.589844 18.726562 -11.894531 18.234375 -11.894531 L 13.554688 -11.894531 L 18.386719 -24.125 C 18.425781 -24.199219 18.460938 -24.238281 18.460938 -24.238281 L 18.613281 -24.238281 C 18.613281 -24.238281 18.613281 -24.238281 18.652344 -24.164062 L 28.015625 -0.792969 C 28.203125 -0.265625 28.582031 0.0390625 29.109375 0.0390625 L 33.148438 0.0390625 C 33.753906 0.0390625 33.902344 -0.339844 33.980469 -0.527344 C 34.054688 -0.753906 34.015625 -1.09375 33.867188 -1.433594 Z M 23.257812 -27.597656 "/></g></g></g><g fill="rgb(100%, 100%, 100%)" fill-opacity="1"><g transform="translate(169.729988, 221.249985)"><g><path d="M 24.804688 -5.585938 L 12.535156 -5.585938 C 11.742188 -5.585938 11.101562 -5.664062 10.570312 -5.851562 C 10.117188 -6.003906 9.742188 -6.265625 9.476562 -6.683594 C 9.175781 -7.097656 8.949219 -7.664062 8.835938 -8.34375 C 8.683594 -9.097656 8.644531 -10.042969 8.644531 -11.175781 L 8.644531 -29.789062 C 8.644531 -30.996094 7.890625 -31.109375 7.589844 -31.109375 L 4.117188 -31.109375 C 3.777344 -31.109375 3.019531 -30.996094 3.019531 -29.789062 L 3.019531 -11.816406 C 3.019531 -9.703125 3.210938 -7.890625 3.550781 -6.417969 C 3.890625 -4.90625 4.417969 -3.664062 5.171875 -2.71875 C 5.925781 -1.738281 6.910156 -1.019531 8.117188 -0.605469 C 9.25 -0.1875 10.683594 0.0390625 12.347656 0.0390625 L 24.804688 0.0390625 C 25.144531 0.0390625 25.863281 -0.113281 25.863281 -1.285156 L 25.863281 -4.265625 C 25.863281 -5.4375 25.144531 -5.585938 24.804688 -5.585938 Z M 24.804688 -5.585938 "/></g></g></g><g fill="rgb(100%, 100%, 100%)" fill-opacity="1"><g transform="translate(210.839294, 221.249985)"><g><path d="M 28.730469 -28.355469 C 27.976562 -29.296875 26.996094 -30.015625 25.785156 -30.46875 C 24.617188 -30.882812 23.179688 -31.109375 21.519531 -31.109375 L 12.308594 -31.109375 C 10.648438 -31.109375 9.25 -30.882812 8.078125 -30.46875 C 6.871094 -30.015625 5.890625 -29.296875 5.132812 -28.355469 C 4.417969 -27.410156 3.851562 -26.164062 3.511719 -24.652344 C 3.171875 -23.179688 3.019531 -21.40625 3.019531 -19.292969 L 3.019531 -11.816406 C 3.019531 -9.703125 3.171875 -7.890625 3.511719 -6.417969 C 3.851562 -4.90625 4.417969 -3.664062 5.132812 -2.71875 C 5.890625 -1.738281 6.871094 -1.019531 8.078125 -0.605469 C 9.210938 -0.1875 10.648438 0.0390625 12.308594 0.0390625 L 21.519531 0.0390625 C 23.179688 0.0390625 24.617188 -0.1875 25.785156 -0.605469 C 26.996094 -1.019531 27.976562 -1.738281 28.730469 -2.679688 C 29.488281 -3.664062 30.015625 -4.90625 30.355469 -6.417969 C 30.65625 -7.890625 30.847656 -9.703125 30.847656 -11.816406 L 30.847656 -19.292969 C 30.847656 -21.371094 30.65625 -23.179688 30.355469 -24.652344 C 30.015625 -26.164062 29.488281 -27.410156 28.730469 -28.355469 Z M 25.21875 -19.933594 L 25.21875 -11.136719 C 25.21875 -10.042969 25.183594 -9.097656 25.03125 -8.34375 C 24.917969 -7.664062 24.691406 -7.058594 24.390625 -6.683594 C 24.125 -6.265625 23.746094 -6.003906 23.257812 -5.851562 C 22.765625 -5.664062 22.125 -5.585938 21.332031 -5.585938 L 12.496094 -5.585938 C 11.703125 -5.585938 11.0625 -5.664062 10.570312 -5.851562 C 10.082031 -6.003906 9.703125 -6.265625 9.4375 -6.683594 C 9.136719 -7.058594 8.949219 -7.664062 8.796875 -8.34375 C 8.683594 -9.097656 8.609375 -10.042969 8.609375 -11.136719 L 8.609375 -19.933594 C 8.609375 -21.03125 8.683594 -21.972656 8.796875 -22.726562 C 8.949219 -23.445312 9.136719 -24.011719 9.4375 -24.425781 C 9.703125 -24.804688 10.082031 -25.070312 10.570312 -25.257812 C 11.0625 -25.410156 11.703125 -25.523438 12.496094 -25.523438 L 21.332031 -25.523438 C 22.125 -25.523438 22.765625 -25.410156 23.257812 -25.257812 C 23.746094 -25.070312 24.125 -24.804688 24.390625 -24.425781 C 24.691406 -24.011719 24.917969 -23.445312 25.03125 -22.726562 C 25.183594 -21.972656 25.21875 -21.03125 25.21875 -19.933594 Z M 25.21875 -19.933594 "/></g></g></g><g fill="rgb(100%, 100%, 100%)" fill-opacity="1"><g transform="translate(256.931072, 221.249985)"><g><path d="M 28.582031 -31.109375 L 12.347656 -31.109375 C 10.683594 -31.109375 9.25 -30.882812 8.078125 -30.46875 C 6.910156 -30.015625 5.890625 -29.296875 5.171875 -28.355469 C 4.417969 -27.371094 3.851562 -26.164062 3.511719 -24.652344 C 3.171875 -23.179688 3.019531 -21.371094 3.019531 -19.292969 L 3.019531 -11.816406 C 3.019531 -9.703125 3.171875 -7.890625 3.511719 -6.378906 C 3.851562 -4.90625 4.417969 -3.664062 5.171875 -2.679688 C 5.925781 -1.738281 6.910156 -1.019531 8.078125 -0.605469 C 9.25 -0.1875 10.683594 0.0390625 12.347656 0.0390625 L 25.257812 0.0390625 C 26.65625 0.0390625 27.75 -0.527344 28.503906 -1.625 C 29.222656 -2.679688 29.601562 -4.457031 29.601562 -6.984375 L 29.601562 -17.101562 C 29.601562 -18.539062 28.769531 -18.765625 28.277344 -18.765625 L 14.914062 -18.765625 C 14.609375 -18.765625 13.855469 -18.613281 13.855469 -17.40625 L 13.855469 -14.535156 C 13.855469 -13.289062 14.609375 -13.175781 14.914062 -13.175781 L 24.3125 -13.175781 C 24.3125 -13.175781 24.351562 -7.890625 24.351562 -7.890625 C 24.351562 -6.71875 24.164062 -6.230469 24.011719 -6.003906 C 23.824219 -5.699219 23.519531 -5.585938 23.105469 -5.585938 L 12.535156 -5.585938 C 11.742188 -5.585938 11.0625 -5.664062 10.570312 -5.851562 C 10.082031 -6.003906 9.742188 -6.265625 9.4375 -6.683594 C 9.175781 -7.058594 8.949219 -7.625 8.835938 -8.34375 C 8.683594 -9.097656 8.609375 -10.042969 8.609375 -11.175781 L 8.609375 -19.933594 C 8.609375 -21.066406 8.683594 -22.011719 8.835938 -22.765625 C 8.949219 -23.445312 9.175781 -24.011719 9.4375 -24.425781 C 9.742188 -24.804688 10.082031 -25.070312 10.570312 -25.257812 C 11.0625 -25.410156 11.742188 -25.523438 12.535156 -25.523438 L 28.582031 -25.523438 C 28.882812 -25.523438 29.636719 -25.636719 29.636719 -26.84375 L 29.636719 -29.789062 C 29.636719 -30.960938 28.882812 -31.109375 28.582031 -31.109375 Z M 28.582031 -31.109375 "/></g></g></g></svg>